<?xml version="1.0" encoding="UTF-8" standalone="no"?>
<!-- Created with Inkscape (http://www.inkscape.org/) -->

<svg
   version="1.1"
   id="svg1"
   width="793.70135"
   height="191.71201"
   viewBox="0 0 793.70135 191.71201"
   sodipodi:docname="calfus-logo.ai"
   xmlns:inkscape="http://www.inkscape.org/namespaces/inkscape"
   xmlns:sodipodi="http://sodipodi.sourceforge.net/DTD/sodipodi-0.dtd"
   xmlns="http://www.w3.org/2000/svg"
   xmlns:svg="http://www.w3.org/2000/svg">
  <defs
     id="defs1">
    <clipPath
       clipPathUnits="userSpaceOnUse"
       id="clipPath2">
      <path
         d="M 0,143.784 H 595.276 V 0 H 0 Z"
         transform="translate(-147.7474,-92.906903)"
         id="path2" />
    </clipPath>
    <clipPath
       clipPathUnits="userSpaceOnUse"
       id="clipPath4">
      <path
         d="M 0,143.784 H 595.276 V 0 H 0 Z"
         transform="translate(-236.69151,-55.559904)"
         id="path4" />
    </clipPath>
    <clipPath
       clipPathUnits="userSpaceOnUse"
       id="clipPath6">
      <path
         d="M 0,143.784 H 595.276 V 0 H 0 Z"
         id="path6" />
    </clipPath>
    <clipPath
       clipPathUnits="userSpaceOnUse"
       id="clipPath8">
      <path
         d="M 0,143.784 H 595.276 V 0 H 0 Z"
         transform="translate(-306.63441,-97.820802)"
         id="path8" />
    </clipPath>
    <clipPath
       clipPathUnits="userSpaceOnUse"
       id="clipPath10">
      <path
         d="M 0,143.784 H 595.276 V 0 H 0 Z"
         transform="translate(-440.95291,-13.132898)"
         id="path10" />
    </clipPath>
    <clipPath
       clipPathUnits="userSpaceOnUse"
       id="clipPath12">
      <path
         d="M 0,143.784 H 595.276 V 0 H 0 Z"
         transform="translate(-474.69341,-40.324599)"
         id="path12" />
    </clipPath>
    <clipPath
       clipPathUnits="userSpaceOnUse"
       id="clipPath14">
      <path
         d="M 0,143.784 H 595.276 V 0 H 0 Z"
         transform="translate(-170.50341,-98.435102)"
         id="path14" />
    </clipPath>
  </defs>
  <sodipodi:namedview
     id="namedview1"
     pagecolor="#ffffff"
     bordercolor="#000000"
     borderopacity="0.25"
     inkscape:showpageshadow="2"
     inkscape:pageopacity="0.0"
     inkscape:pagecheckerboard="0"
     inkscape:deskcolor="#d1d1d1">
    <inkscape:page
       x="0"
       y="0"
       inkscape:label="1"
       id="page1"
       width="793.70135"
       height="191.71201"
       margin="13.8032 85.204002 14.542666 83.424797"
       bleed="0" />
  </sodipodi:namedview>
  <g
     id="layer-MC0"
     inkscape:groupmode="layer"
     inkscape:label="Layer 1">
    <path
       id="path1"
       d="m 0,0 c -0.875,3.384 -2.077,6.496 -3.604,9.336 -1.53,2.838 -3.496,5.296 -5.897,7.371 -2.404,2.074 -5.215,3.687 -8.437,4.832 -3.221,1.147 -6.962,1.721 -11.219,1.721 -6.225,0 -11.605,-1.256 -16.134,-3.768 -4.534,-2.513 -8.219,-5.872 -11.058,-10.074 -2.841,-4.207 -4.942,-8.983 -6.307,-14.332 -1.366,-5.353 -2.047,-10.811 -2.047,-16.381 0,-5.569 0.68,-11.031 2.047,-16.38 1.365,-5.351 3.464,-10.131 6.307,-14.332 2.838,-4.204 6.525,-7.561 11.058,-10.073 4.53,-2.515 9.909,-3.768 16.134,-3.768 4.586,0 8.625,0.789 12.121,2.376 3.495,1.58 6.496,3.768 9.01,6.55 2.511,2.787 4.477,6.033 5.897,9.748 1.417,3.712 2.346,7.698 2.784,11.959 H 20.64 c -0.437,-6.991 -1.939,-13.377 -4.504,-19.165 -2.568,-5.79 -6.034,-10.788 -10.402,-14.989 -4.37,-4.204 -9.5,-7.452 -15.398,-9.747 -5.897,-2.295 -12.394,-3.439 -19.492,-3.439 -8.738,0 -16.573,1.614 -23.507,4.832 -6.936,3.218 -12.805,7.618 -17.61,13.186 -4.806,5.571 -8.491,12.067 -11.057,19.492 -2.567,7.427 -3.849,15.34 -3.849,23.752 0,8.298 1.283,16.161 3.849,23.588 2.564,7.424 6.251,13.923 11.057,19.493 4.804,5.569 10.674,9.992 17.61,13.268 6.933,3.276 14.767,4.914 23.507,4.914 6.552,0 12.72,-0.9 18.509,-2.703 5.788,-1.802 10.893,-4.423 15.315,-7.863 4.423,-3.44 7.999,-7.617 10.729,-12.53 C 18.125,11.96 19.82,6.334 20.475,0.002 H 0 Z"
       style="fill:#231f20;fill-opacity:1;fill-rule:evenodd;stroke:none"
       transform="matrix(1.3333333,0,0,-1.3333333,196.99653,67.836133)"
       clip-path="url(#clipPath2)" />
    <path
       id="path3"
       d="m 0,0 c -2.841,-1.858 -6.335,-2.978 -10.483,-3.359 -4.151,-0.382 -8.301,-0.956 -12.449,-1.719 -1.966,-0.326 -3.879,-0.792 -5.733,-1.393 -1.858,-0.6 -3.497,-1.418 -4.914,-2.455 -1.42,-1.041 -2.54,-2.404 -3.359,-4.095 -0.82,-1.696 -1.228,-3.743 -1.228,-6.143 0,-2.075 0.599,-3.824 1.802,-5.242 1.201,-1.422 2.647,-2.54 4.342,-3.357 1.69,-0.82 3.547,-1.393 5.569,-1.719 2.019,-0.33 3.848,-0.492 5.487,-0.492 2.073,0 4.312,0.269 6.716,0.818 2.4,0.546 4.667,1.474 6.797,2.786 2.129,1.309 3.903,2.974 5.322,4.997 1.418,2.02 2.13,4.506 2.13,7.452 L -0.002,0 Z m 18.674,-23.589 c 0,-2.292 0.299,-3.93 0.9,-4.912 0.599,-0.983 1.773,-1.474 3.52,-1.474 h 1.966 c 0.763,0 1.638,0.105 2.621,0.325 v -12.938 c -0.656,-0.221 -1.502,-0.465 -2.54,-0.74 -1.039,-0.268 -2.103,-0.517 -3.193,-0.736 -1.094,-0.217 -2.185,-0.381 -3.276,-0.492 -1.094,-0.105 -2.022,-0.162 -2.785,-0.162 -3.824,0 -6.991,0.763 -9.5,2.292 -2.514,1.529 -4.151,4.204 -4.914,8.028 -3.715,-3.604 -8.273,-6.225 -13.678,-7.863 -5.406,-1.637 -10.62,-2.457 -15.642,-2.457 -3.824,0 -7.48,0.516 -10.975,1.553 -3.496,1.038 -6.58,2.567 -9.256,4.585 -2.677,2.021 -4.806,4.588 -6.388,7.701 -1.586,3.112 -2.376,6.741 -2.376,10.893 0,5.242 0.955,9.498 2.866,12.775 1.909,3.277 4.422,5.841 7.535,7.699 3.112,1.857 6.605,3.195 10.483,4.012 3.875,0.821 7.782,1.448 11.713,1.885 3.384,0.655 6.605,1.12 9.664,1.393 3.056,0.272 5.759,0.736 8.108,1.394 2.346,0.655 4.202,1.664 5.57,3.031 1.363,1.363 2.046,3.412 2.046,6.141 0,2.401 -0.572,4.367 -1.721,5.897 -1.147,1.528 -2.566,2.703 -4.259,3.521 -1.694,0.82 -3.578,1.365 -5.651,1.638 -2.075,0.271 -4.041,0.41 -5.897,0.41 -5.242,0 -9.557,-1.094 -12.941,-3.276 -3.385,-2.186 -5.298,-5.569 -5.733,-10.156 l -18.669,0.001 c 0.328,5.459 1.638,9.992 3.932,13.596 2.293,3.604 5.213,6.496 8.764,8.681 3.548,2.185 7.56,3.712 12.039,4.587 4.477,0.874 9.064,1.311 13.76,1.311 4.147,0 8.243,-0.437 12.285,-1.311 4.038,-0.876 7.67,-2.293 10.892,-4.259 3.22,-1.965 5.816,-4.506 7.781,-7.617 1.966,-3.113 2.949,-6.908 2.949,-11.384 z"
       style="fill:#231f20;fill-opacity:1;fill-rule:evenodd;stroke:none"
       transform="matrix(1.3333333,0,0,-1.3333333,315.58867,117.63213)"
       clip-path="url(#clipPath4)" />
    <path
       id="path5"
       d="m 276.003,130.09 h 18.674 V 13.133 h -18.674 z"
       style="fill:#231f20;fill-opacity:1;fill-rule:evenodd;stroke:none"
       transform="matrix(1.3333333,0,0,-1.3333333,0,191.712)"
       clip-path="url(#clipPath6)" />
    <path
       id="path7"
       d="m 0,0 h 13.925 v 7.044 c 0,5.349 0.655,9.689 1.965,13.022 1.312,3.329 3.058,5.898 5.242,7.699 2.184,1.802 4.669,3.002 7.452,3.604 2.787,0.599 5.707,0.9 8.765,0.9 6.004,0 10.374,-0.384 13.104,-1.147 V 16.544 c -1.203,0.328 -2.485,0.572 -3.848,0.736 -1.367,0.164 -2.977,0.245 -4.832,0.245 -2.515,0 -4.67,-0.6 -6.469,-1.802 C 33.5,14.52 32.598,12.173 32.598,8.68 v -8.682 l 15.891,0.001 V -13.925 H 32.598 V -84.69 H 13.927 v 70.767 H 10e-4 L 0.001,0 Z"
       style="fill:#231f20;fill-opacity:1;fill-rule:evenodd;stroke:none"
       transform="matrix(1.3333333,0,0,-1.3333333,408.84587,61.284267)"
       clip-path="url(#clipPath8)" />
    <path
       id="path9"
       d="m 0,0 h -18.346 v 11.796 h -0.329 C -20.966,7.537 -24.381,4.12 -28.913,1.557 c -4.53,-2.566 -9.145,-3.848 -13.84,-3.848 -11.136,0 -19.194,2.756 -24.16,8.269 -4.971,5.513 -7.453,13.841 -7.453,24.982 v 53.728 h 18.672 V 32.762 c 0,-7.429 1.417,-12.671 4.258,-15.725 2.838,-3.061 6.822,-4.585 11.958,-4.585 3.932,0 7.206,0.597 9.826,1.8 2.621,1.204 4.751,2.812 6.389,4.832 1.638,2.021 2.811,4.449 3.523,7.29 0.707,2.838 1.063,5.897 1.063,9.175 V 84.688 H -0.001 L -0.001,0 Z"
       style="fill:#231f20;fill-opacity:1;fill-rule:evenodd;stroke:none"
       transform="matrix(1.3333333,0,0,-1.3333333,587.9372,174.20147)"
       clip-path="url(#clipPath10)" />
    <path
       id="path11"
       d="m 0,0 c 0.546,-5.462 2.621,-9.28 6.225,-11.467 3.604,-2.186 7.917,-3.274 12.942,-3.274 1.745,0 3.74,0.136 5.978,0.407 2.237,0.272 4.34,0.793 6.305,1.557 1.968,0.763 3.577,1.885 4.835,3.357 1.255,1.474 1.827,3.412 1.719,5.814 -0.109,2.401 -0.983,4.366 -2.621,5.897 -1.638,1.529 -3.743,2.757 -6.307,3.689 -2.567,0.925 -5.487,1.719 -8.762,2.375 -3.276,0.654 -6.608,1.363 -9.991,2.127 -3.497,0.764 -6.855,1.692 -10.077,2.786 -3.221,1.091 -6.117,2.567 -8.68,4.424 -2.569,1.855 -4.614,4.231 -6.143,7.127 -1.532,2.892 -2.295,6.469 -2.295,10.729 0,4.586 1.119,8.436 3.357,11.547 2.238,3.11 5.08,5.622 8.518,7.535 3.441,1.909 7.262,3.248 11.466,4.012 4.205,0.763 8.219,1.147 12.041,1.147 4.366,0 8.544,-0.465 12.532,-1.392 3.984,-0.929 7.588,-2.432 10.809,-4.505 3.218,-2.075 5.897,-4.779 8.029,-8.108 2.129,-3.332 3.464,-7.345 4.014,-12.039 H 34.401 c -0.876,4.477 -2.926,7.478 -6.144,9.009 -3.221,1.527 -6.909,2.293 -11.059,2.293 -1.309,0 -2.866,-0.11 -4.666,-0.327 C 10.729,44.5 9.036,44.091 7.456,43.49 5.87,42.89 4.531,42.016 3.442,40.869 2.346,39.722 1.804,38.22 1.804,36.366 c 0,-2.294 0.79,-4.151 2.376,-5.57 1.58,-1.421 3.658,-2.594 6.225,-3.521 2.562,-0.93 5.487,-1.719 8.764,-2.375 3.274,-0.656 6.656,-1.367 10.154,-2.13 3.384,-0.766 6.719,-1.693 9.992,-2.784 3.276,-1.094 6.198,-2.568 8.764,-4.423 2.566,-1.858 4.641,-4.206 6.225,-7.045 1.583,-2.841 2.376,-6.334 2.376,-10.484 0,-5.021 -1.147,-9.28 -3.439,-12.774 -2.295,-3.497 -5.271,-6.338 -8.928,-8.518 -3.658,-2.188 -7.727,-3.768 -12.202,-4.75 -4.479,-0.983 -8.903,-1.474 -13.27,-1.474 -5.351,0 -10.294,0.6 -14.824,1.8 -4.533,1.203 -8.462,3.031 -11.792,5.487 -3.336,2.459 -5.957,5.513 -7.866,9.175 -1.909,3.658 -2.922,7.998 -3.028,13.019 L 0,-0.002 Z"
       style="fill:#231f20;fill-opacity:1;fill-rule:evenodd;stroke:none"
       transform="matrix(1.3333333,0,0,-1.3333333,632.92453,137.94587)"
       clip-path="url(#clipPath12)" />
    <path
       id="path13"
       d="m 0,0 c 0,7.128 -5.814,12.942 -12.942,12.942 -7.128,0 -12.942,-5.814 -12.942,-12.942 0,-7.128 5.814,-12.942 12.942,-12.942 C -5.814,-12.942 0,-7.128 0,0"
       style="fill:#54c4a6;fill-opacity:1;fill-rule:evenodd;stroke:none"
       transform="matrix(1.3333333,0,0,-1.3333333,227.33787,60.4652)"
       clip-path="url(#clipPath14)" />
  </g>
  <g
     id="layer-MC1"
     inkscape:groupmode="layer"
     inkscape:label="Layer 1" />
  <g
     id="layer-MC2"
     inkscape:groupmode="layer"
     inkscape:label="Layer 1" />
</svg>
